<svg width="25" height="24" viewBox="0 0 25 24" fill="none" xmlns="http://www.w3.org/2000/svg">
<g id="truck-duotone (1) 1" clip-path="url(#clip0_2161_2855)">
<path id="Vector" opacity="0.2" d="M24.1875 11.25V17.25C24.1875 17.4489 24.1085 17.6397 23.9678 17.7803C23.8272 17.921 23.6364 18 23.4375 18H21.1875C21.1875 17.4033 20.9504 16.831 20.5285 16.409C20.1065 15.9871 19.5342 15.75 18.9375 15.75C18.3408 15.75 17.7685 15.9871 17.3465 16.409C16.9246 16.831 16.6875 17.4033 16.6875 18H10.6875C10.6875 17.4033 10.4504 16.831 10.0285 16.409C9.60653 15.9871 9.03424 15.75 8.4375 15.75C7.84076 15.75 7.26847 15.9871 6.84651 16.409C6.42455 16.831 6.1875 17.4033 6.1875 18H3.9375C3.73859 18 3.54782 17.921 3.40717 17.7803C3.26652 17.6397 3.1875 17.4489 3.1875 17.25V13.5H18.1875V11.25H24.1875Z" fill="black"/>
<path id="Vector_2" d="M24.8831 10.9688L23.5706 7.6875C23.4593 7.40988 23.2671 7.17209 23.0191 7.00494C22.771 6.83778 22.4785 6.74897 22.1794 6.75H18.9375V6C18.9375 5.80109 18.8585 5.61032 18.7178 5.46967C18.5772 5.32902 18.3864 5.25 18.1875 5.25H3.9375C3.53968 5.25 3.15814 5.40804 2.87684 5.68934C2.59554 5.97064 2.4375 6.35218 2.4375 6.75V17.25C2.4375 17.6478 2.59554 18.0294 2.87684 18.3107C3.15814 18.592 3.53968 18.75 3.9375 18.75H5.53125C5.69648 19.3953 6.07178 19.9673 6.59798 20.3757C7.12419 20.7842 7.77137 21.0059 8.4375 21.0059C9.10363 21.0059 9.75081 20.7842 10.277 20.3757C10.8032 19.9673 11.1785 19.3953 11.3438 18.75H16.0313C16.1965 19.3953 16.5718 19.9673 17.098 20.3757C17.6242 20.7842 18.2714 21.0059 18.9375 21.0059C19.6036 21.0059 20.2508 20.7842 20.777 20.3757C21.3032 19.9673 21.6785 19.3953 21.8438 18.75H23.4375C23.8353 18.75 24.2169 18.592 24.4982 18.3107C24.7795 18.0294 24.9375 17.6478 24.9375 17.25V11.25C24.9378 11.1536 24.9193 11.0581 24.8831 10.9688ZM18.9375 8.25H22.1794L23.0794 10.5H18.9375V8.25ZM3.9375 6.75H17.4375V12.75H3.9375V6.75ZM8.4375 19.5C8.14083 19.5 7.85082 19.412 7.60415 19.2472C7.35747 19.0824 7.16521 18.8481 7.05168 18.574C6.93815 18.2999 6.90844 17.9983 6.96632 17.7074C7.0242 17.4164 7.16706 17.1491 7.37684 16.9393C7.58662 16.7296 7.85389 16.5867 8.14487 16.5288C8.43584 16.4709 8.73744 16.5006 9.01153 16.6142C9.28561 16.7277 9.51988 16.92 9.6847 17.1666C9.84953 17.4133 9.9375 17.7033 9.9375 18C9.9375 18.3978 9.77947 18.7794 9.49816 19.0607C9.21686 19.342 8.83533 19.5 8.4375 19.5ZM16.0313 17.25H11.3438C11.1785 16.6047 10.8032 16.0327 10.277 15.6243C9.75081 15.2158 9.10363 14.9941 8.4375 14.9941C7.77137 14.9941 7.12419 15.2158 6.59798 15.6243C6.07178 16.0327 5.69648 16.6047 5.53125 17.25H3.9375V14.25H17.4375V15.4041C17.0926 15.6034 16.7907 15.8692 16.5494 16.1861C16.308 16.5029 16.1319 16.8646 16.0313 17.25ZM18.9375 19.5C18.6408 19.5 18.3508 19.412 18.1041 19.2472C17.8575 19.0824 17.6652 18.8481 17.5517 18.574C17.4382 18.2999 17.4084 17.9983 17.4663 17.7074C17.5242 17.4164 17.6671 17.1491 17.8768 16.9393C18.0866 16.7296 18.3539 16.5867 18.6449 16.5288C18.9358 16.4709 19.2374 16.5006 19.5115 16.6142C19.7856 16.7277 20.0199 16.92 20.1847 17.1666C20.3495 17.4133 20.4375 17.7033 20.4375 18C20.4375 18.3978 20.2795 18.7794 19.9982 19.0607C19.7169 19.342 19.3353 19.5 18.9375 19.5ZM23.4375 17.25H21.8438C21.6765 16.6063 21.3005 16.0362 20.7746 15.629C20.2487 15.2218 19.6026 15.0006 18.9375 15V12H23.4375V17.25Z" fill="black"/>
</g>
<defs>
<clipPath id="clip0_2161_2855">
<rect width="24" height="24" fill="white" transform="translate(0.9375)"/>
</clipPath>
</defs>
</svg>
