<svg width="25" height="24" viewBox="0 0 25 24" fill="none" xmlns="http://www.w3.org/2000/svg">
<g id="headset-duotone 1">
<path id="Vector" opacity="0.2" d="M8.3125 13.5V17.25C8.3125 17.6478 8.15446 18.0294 7.87316 18.3107C7.59186 18.592 7.21032 18.75 6.8125 18.75H5.3125C4.91468 18.75 4.53314 18.592 4.25184 18.3107C3.97054 18.0294 3.8125 17.6478 3.8125 17.25V12H6.8125C7.21032 12 7.59186 12.158 7.87316 12.4393C8.15446 12.7206 8.3125 13.1022 8.3125 13.5ZM18.8125 12C18.4147 12 18.0331 12.158 17.7518 12.4393C17.4705 12.7206 17.3125 13.1022 17.3125 13.5V17.25C17.3125 17.6478 17.4705 18.0294 17.7518 18.3107C18.0331 18.592 18.4147 18.75 18.8125 18.75H21.8125V12H18.8125Z" fill="black"/>
<path id="Vector_2" d="M19.7397 5.12437C18.3776 3.7543 16.6394 2.81941 14.7455 2.43817C12.8515 2.05694 10.887 2.24652 9.10088 2.98289C7.31477 3.71927 5.78746 4.96928 4.71248 6.57454C3.63751 8.1798 3.06326 10.068 3.0625 12V17.25C3.0625 17.8467 3.29955 18.419 3.72151 18.841C4.14347 19.2629 4.71576 19.5 5.3125 19.5H6.8125C7.40924 19.5 7.98153 19.2629 8.40349 18.841C8.82545 18.419 9.0625 17.8467 9.0625 17.25V13.5C9.0625 12.9033 8.82545 12.331 8.40349 11.909C7.98153 11.487 7.40924 11.25 6.8125 11.25H4.59625C4.74089 9.68618 5.32828 8.196 6.28959 6.95409C7.25089 5.71219 8.54627 4.77002 10.0239 4.23802C11.5015 3.70602 13.1002 3.60623 14.6325 3.95035C16.1649 4.29446 17.5673 5.06822 18.6756 6.18093C20.0302 7.54246 20.8634 9.33661 21.0297 11.25H18.8125C18.2158 11.25 17.6435 11.487 17.2215 11.909C16.7996 12.331 16.5625 12.9033 16.5625 13.5V17.25C16.5625 17.8467 16.7996 18.419 17.2215 18.841C17.6435 19.2629 18.2158 19.5 18.8125 19.5H21.0625C21.0625 20.0967 20.8254 20.669 20.4035 21.091C19.9815 21.5129 19.4092 21.75 18.8125 21.75H13.5625C13.3636 21.75 13.1728 21.829 13.0322 21.9697C12.8915 22.1103 12.8125 22.3011 12.8125 22.5C12.8125 22.6989 12.8915 22.8897 13.0322 23.0303C13.1728 23.171 13.3636 23.25 13.5625 23.25H18.8125C19.8071 23.25 20.7609 22.8549 21.4642 22.1516C22.1674 21.4484 22.5625 20.4946 22.5625 19.5V12C22.5674 10.7246 22.3206 9.46077 21.8362 8.28092C21.3518 7.10108 20.6393 6.02841 19.7397 5.12437ZM6.8125 12.75C7.01141 12.75 7.20218 12.829 7.34283 12.9697C7.48348 13.1103 7.5625 13.3011 7.5625 13.5V17.25C7.5625 17.4489 7.48348 17.6397 7.34283 17.7803C7.20218 17.921 7.01141 18 6.8125 18H5.3125C5.11359 18 4.92282 17.921 4.78217 17.7803C4.64152 17.6397 4.5625 17.4489 4.5625 17.25V12.75H6.8125ZM18.8125 18C18.6136 18 18.4228 17.921 18.2822 17.7803C18.1415 17.6397 18.0625 17.4489 18.0625 17.25V13.5C18.0625 13.3011 18.1415 13.1103 18.2822 12.9697C18.4228 12.829 18.6136 12.75 18.8125 12.75H21.0625V18H18.8125Z" fill="black"/>
</g>
</svg>
