<svg width="25" height="24" viewBox="0 0 25 24" fill="none" xmlns="http://www.w3.org/2000/svg">
<g id="users-duotone (1) 1" clip-path="url(#clip0_2161_2858)">
<path id="Vector" opacity="0.2" d="M12.8125 10.125C12.8125 11.0892 12.5266 12.0317 11.9909 12.8334C11.4552 13.6351 10.6939 14.2599 9.80308 14.6289C8.91229 14.9979 7.93209 15.0944 6.98644 14.9063C6.04078 14.7182 5.17214 14.2539 4.49036 13.5721C3.80858 12.8904 3.34428 12.0217 3.15617 11.0761C2.96807 10.1304 3.06461 9.15021 3.43359 8.25942C3.80257 7.36863 4.42741 6.60726 5.2291 6.07159C6.03079 5.53591 6.97332 5.25 7.9375 5.25C9.23043 5.25 10.4704 5.76361 11.3846 6.67785C12.2989 7.59209 12.8125 8.83207 12.8125 10.125Z" fill="black"/>
<path id="Vector_2" d="M11.0547 14.805C12.0599 14.1358 12.823 13.1609 13.2313 12.0244C13.6395 10.888 13.6712 9.65027 13.3217 8.4944C12.9721 7.33853 12.2598 6.32584 11.2902 5.60608C10.3206 4.88632 9.14506 4.49771 7.93749 4.49771C6.72991 4.49771 5.5544 4.88632 4.58477 5.60608C3.61514 6.32584 2.90289 7.33853 2.55332 8.4944C2.20376 9.65027 2.23545 10.888 2.6437 12.0244C3.05196 13.1609 3.81511 14.1358 4.8203 14.805C3.00201 15.4752 1.44915 16.7153 0.393423 18.3403C0.337938 18.4228 0.299398 18.5154 0.280043 18.6129C0.260688 18.7104 0.260905 18.8108 0.28068 18.9082C0.300456 19.0056 0.339396 19.0981 0.395237 19.1803C0.451077 19.2626 0.522705 19.3329 0.605957 19.3872C0.689208 19.4415 0.782422 19.4787 0.880181 19.4966C0.977939 19.5146 1.07829 19.5129 1.17541 19.4918C1.27252 19.4706 1.36446 19.4304 1.44588 19.3733C1.5273 19.3163 1.59657 19.2437 1.64967 19.1597C2.33066 18.1123 3.26251 17.2516 4.36058 16.6558C5.45866 16.06 6.68818 15.7479 7.93749 15.7479C9.18679 15.7479 10.4163 16.06 11.5144 16.6558C12.6125 17.2516 13.5443 18.1123 14.2253 19.1597C14.3353 19.3232 14.5052 19.4368 14.6983 19.476C14.8915 19.5152 15.0922 19.4768 15.2573 19.3692C15.4223 19.2615 15.5384 19.0933 15.5804 18.9007C15.6223 18.7082 15.5868 18.5069 15.4815 18.3403C14.4258 16.7153 12.873 15.4752 11.0547 14.805ZM3.81249 10.125C3.81249 9.30915 4.05441 8.51162 4.50767 7.83327C4.96093 7.15491 5.60517 6.6262 6.35892 6.31399C7.11266 6.00178 7.94206 5.92009 8.74223 6.07925C9.54241 6.23842 10.2774 6.63129 10.8543 7.20818C11.4312 7.78507 11.8241 8.52007 11.9832 9.32025C12.1424 10.1204 12.0607 10.9498 11.7485 11.7036C11.4363 12.4573 10.9076 13.1015 10.2292 13.5548C9.55086 14.0081 8.75333 14.25 7.93749 14.25C6.84385 14.2488 5.79536 13.8138 5.02204 13.0404C4.24872 12.2671 3.81373 11.2186 3.81249 10.125ZM23.5131 19.3781C23.3465 19.4868 23.1436 19.5248 22.949 19.4838C22.7544 19.4428 22.584 19.3263 22.4753 19.1597C21.7951 18.1117 20.8634 17.2506 19.7651 16.655C18.6668 16.0595 17.4369 15.7483 16.1875 15.75C15.9886 15.75 15.7978 15.671 15.6572 15.5303C15.5165 15.3897 15.4375 15.1989 15.4375 15C15.4375 14.8011 15.5165 14.6103 15.6572 14.4697C15.7978 14.329 15.9886 14.25 16.1875 14.25C16.795 14.2494 17.3948 14.1147 17.9442 13.8554C18.4935 13.5961 18.9788 13.2187 19.3654 12.7502C19.752 12.2816 20.0304 11.7334 20.1806 11.1448C20.3307 10.5562 20.3491 9.94165 20.2342 9.34513C20.1194 8.74862 19.8742 8.18483 19.5162 7.69405C19.1582 7.20328 18.6962 6.79763 18.1633 6.50609C17.6303 6.21455 17.0396 6.04432 16.4332 6.00756C15.8269 5.97079 15.2199 6.06841 14.6556 6.29343C14.5636 6.3332 14.4646 6.35413 14.3643 6.35498C14.2641 6.35582 14.1647 6.33657 14.0721 6.29836C13.9794 6.26015 13.8954 6.20376 13.8249 6.13251C13.7544 6.06126 13.6989 5.97661 13.6617 5.88355C13.6244 5.79049 13.6062 5.69091 13.6081 5.5907C13.6101 5.49049 13.632 5.39168 13.6728 5.3001C13.7135 5.20853 13.7722 5.12606 13.8454 5.05755C13.9185 4.98904 14.0047 4.93589 14.0987 4.90124C15.3901 4.38623 16.8265 4.3677 18.1307 4.84922C19.4349 5.33074 20.5146 6.2782 21.1615 7.50882C21.8084 8.73944 21.9766 10.166 21.6337 11.5134C21.2908 12.8607 20.4611 14.0333 19.3047 14.805C21.123 15.4752 22.6758 16.7153 23.7315 18.3403C23.8402 18.5069 23.8782 18.7098 23.8372 18.9044C23.7963 19.0991 23.6797 19.2694 23.5131 19.3781Z" fill="black"/>
</g>
<defs>
<clipPath id="clip0_2161_2858">
<rect width="24" height="24" fill="white" transform="translate(0.0625)"/>
</clipPath>
</defs>
</svg>
