<svg width="25" height="24" viewBox="0 0 25 24" fill="none" xmlns="http://www.w3.org/2000/svg">
<g id="lock-duotone 1">
<path id="Vector" opacity="0.2" d="M20.4375 9V19.5C20.4375 19.6989 20.3585 19.8897 20.2178 20.0303C20.0772 20.171 19.8864 20.25 19.6875 20.25H4.6875C4.48859 20.25 4.29782 20.171 4.15717 20.0303C4.01652 19.8897 3.9375 19.6989 3.9375 19.5V9C3.9375 8.80109 4.01652 8.61032 4.15717 8.46967C4.29782 8.32902 4.48859 8.25 4.6875 8.25H19.6875C19.8864 8.25 20.0772 8.32902 20.2178 8.46967C20.3585 8.61032 20.4375 8.80109 20.4375 9Z" fill="black"/>
<path id="Vector_2" d="M19.6875 7.5H16.6875V5.25C16.6875 4.05653 16.2134 2.91193 15.3695 2.06802C14.5256 1.22411 13.381 0.75 12.1875 0.75C10.994 0.75 9.84943 1.22411 9.00552 2.06802C8.16161 2.91193 7.6875 4.05653 7.6875 5.25V7.5H4.6875C4.28968 7.5 3.90814 7.65804 3.62684 7.93934C3.34554 8.22064 3.1875 8.60218 3.1875 9V19.5C3.1875 19.8978 3.34554 20.2794 3.62684 20.5607C3.90814 20.842 4.28968 21 4.6875 21H19.6875C20.0853 21 20.4669 20.842 20.7482 20.5607C21.0295 20.2794 21.1875 19.8978 21.1875 19.5V9C21.1875 8.60218 21.0295 8.22064 20.7482 7.93934C20.4669 7.65804 20.0853 7.5 19.6875 7.5ZM9.1875 5.25C9.1875 4.45435 9.50357 3.69129 10.0662 3.12868C10.6288 2.56607 11.3919 2.25 12.1875 2.25C12.9831 2.25 13.7462 2.56607 14.3088 3.12868C14.8714 3.69129 15.1875 4.45435 15.1875 5.25V7.5H9.1875V5.25ZM19.6875 19.5H4.6875V9H19.6875V19.5ZM13.3125 14.25C13.3125 14.4725 13.2465 14.69 13.1229 14.875C12.9993 15.06 12.8236 15.2042 12.618 15.2894C12.4125 15.3745 12.1863 15.3968 11.968 15.3534C11.7498 15.31 11.5493 15.2028 11.392 15.0455C11.2347 14.8882 11.1275 14.6877 11.0841 14.4695C11.0407 14.2512 11.063 14.025 11.1481 13.8195C11.2333 13.6139 11.3775 13.4382 11.5625 13.3146C11.7475 13.191 11.965 13.125 12.1875 13.125C12.4859 13.125 12.772 13.2435 12.983 13.4545C13.194 13.6655 13.3125 13.9516 13.3125 14.25Z" fill="black"/>
</g>
</svg>
