<svg width="135" height="123" viewBox="0 0 135 123" fill="none" xmlns="http://www.w3.org/2000/svg">
<path id="Vector" d="M111.81 0H85.27L85.06 0.36L79.84 9.41L59.58 44.5L57.06 48.86H21.45L49.04 1.12L49.69 0H23.15C5.34998 0 -5.76002 19.25 3.12998 34.66L11.33 48.87L16.4 57.64H17.02H37.63H65.87H72.83L90.64 88.48L35.48 88.46H34.19L47.46 111.45C56.35 126.85 78.58 126.85 87.48 111.45L95.69 97.23L100.74 88.49V88.47L100.76 88.46L100.11 87.34L76.01 45.6H76L72.54 39.61L90.35 8.77L117.9 56.53L118.55 57.65L131.82 34.66C140.71 19.26 129.6 0 111.81 0Z" fill="black"/>
</svg>
